<?xml version="1.0" standalone="no"?>
<!DOCTYPE svg PUBLIC "-//W3C//DTD SVG 20010904//EN"
 "http://www.w3.org/TR/2001/REC-SVG-20010904/DTD/svg10.dtd">
<svg version="1.0" xmlns="http://www.w3.org/2000/svg"
 width="1600.000000pt" height="1600.000000pt" viewBox="0 0 1600.000000 1600.000000"
 preserveAspectRatio="xMidYMid meet">

<g transform="translate(0.000000,1600.000000) scale(0.100000,-0.100000)"
fill="#000000" stroke="none">
<path d="M8735 11263 c-286 -61 -487 -254 -516 -497 -7 -60 -9 -318 -6 -790 6
-752 5 -740 59 -858 36 -77 71 -113 146 -150 l67 -33 860 0 860 0 67 33 c123
60 211 188 258 372 41 163 37 381 -10 534 -40 129 -170 284 -300 359 -30 18
-127 68 -214 112 -237 119 -263 148 -366 400 -134 325 -278 466 -535 520 -89
19 -279 18 -370 -2z m401 -614 c81 -41 96 -79 127 -320 26 -202 88 -282 326
-427 167 -101 231 -154 262 -218 19 -40 20 -50 10 -85 -15 -50 -68 -87 -131
-90 -25 -2 -215 -2 -424 -1 l-379 2 -43 44 c-31 30 -44 52 -45 72 0 16 0 234
-1 485 0 411 2 459 17 482 22 34 59 57 115 72 60 17 109 12 166 -16z"/>
<path d="M6795 11246 c-89 -29 -159 -61 -210 -96 -53 -37 -157 -142 -176 -177
-7 -15 -21 -36 -30 -46 -8 -9 -37 -61 -64 -115 -27 -53 -64 -128 -83 -165 -18
-38 -31 -75 -28 -83 3 -8 -1 -14 -9 -14 -9 0 -15 -9 -14 -22 0 -15 2 -18 6 -8
3 8 12 18 19 23 12 7 134 249 134 266 0 4 9 16 20 26 11 10 22 27 26 37 7 22
46 85 67 108 8 8 33 37 56 63 22 27 41 46 41 43 0 -3 12 6 26 19 15 14 30 23
34 20 4 -3 13 2 19 9 15 17 173 82 238 97 66 15 202 20 238 9 17 -5 47 -10 68
-12 20 -1 37 -6 37 -10 0 -5 6 -8 13 -7 29 6 249 -78 267 -102 3 -4 23 -18 44
-33 21 -14 36 -26 32 -26 -4 0 13 -19 39 -43 32 -30 51 -60 66 -101 11 -32 18
-61 15 -64 -3 -3 0 -12 7 -20 9 -12 12 -134 14 -516 1 -276 3 -575 3 -666 1
-91 -1 -203 -5 -250 -3 -47 -7 -103 -8 -125 -4 -56 -48 -141 -108 -205 -29
-30 -48 -48 -44 -40 7 13 6 13 -11 0 -70 -57 -121 -63 -517 -63 -197 0 -360
-4 -363 -8 -3 -5 -9 -7 -13 -4 -5 2 -154 5 -332 6 -358 1 -488 13 -539 49 -17
12 -30 18 -30 14 0 -3 -6 -1 -13 5 -8 6 -17 8 -20 4 -4 -3 -7 1 -7 10 0 9 -12
23 -27 31 -16 8 -24 15 -19 16 5 0 -5 14 -23 30 -17 17 -31 35 -31 40 0 6 -8
10 -17 10 -14 0 -15 2 -4 9 11 7 10 10 -6 15 -12 4 -25 23 -33 47 -8 23 -20
44 -28 46 -11 5 -11 7 0 14 10 7 10 9 -2 9 -11 0 -20 19 -30 63 -8 34 -16 69
-19 77 -9 28 -9 300 0 306 5 3 9 19 9 35 0 17 7 43 15 59 9 17 13 30 10 30 -4
0 3 17 13 38 11 20 27 54 36 75 10 20 21 37 26 37 5 0 12 10 16 23 4 12 31 47
60 76 30 30 54 59 54 64 0 5 7 7 14 4 9 -4 17 2 21 14 4 10 15 19 26 19 10 0
19 5 19 10 0 6 5 10 12 10 6 0 20 7 30 17 20 18 43 32 98 60 19 10 37 21 40
24 3 3 20 14 38 24 17 11 32 23 32 27 0 4 6 8 13 8 6 0 30 16 52 35 34 30 36
34 14 26 -32 -11 -143 -81 -147 -93 -2 -4 -10 -8 -17 -8 -43 0 -243 -136 -330
-224 -77 -77 -135 -177 -176 -301 -21 -62 -24 -88 -23 -235 0 -121 5 -180 17
-220 9 -30 21 -71 26 -90 12 -41 72 -144 104 -179 69 -75 135 -118 230 -149
l97 -32 763 3 c419 1 773 6 787 10 14 3 37 9 53 13 15 3 27 10 27 15 0 6 4 8
8 5 5 -3 33 12 63 32 56 39 115 115 125 161 3 14 10 44 17 66 9 30 12 239 12
810 l0 770 -23 59 c-68 181 -230 307 -476 371 -83 21 -120 25 -240 25 -119 -1
-152 -4 -211 -24z"/>
<path d="M6990 10665 c0 -10 9 -15 28 -14 16 1 20 3 10 6 -10 2 -18 9 -18 14
0 5 -4 9 -10 9 -5 0 -10 -7 -10 -15z"/>
<path d="M6900 10660 c-24 -8 -24 -8 7 -9 17 -1 35 4 38 9 7 11 -9 11 -45 0z"/>
<path d="M6802 10623 c2 -5 -13 -25 -33 -46 -20 -20 -36 -43 -37 -52 -1 -8 -3
-22 -4 -30 -1 -8 -4 -15 -8 -15 -4 0 -12 -31 -19 -70 -11 -70 -31 -139 -55
-195 -8 -16 -19 -47 -26 -67 -6 -21 -14 -37 -18 -36 -4 1 -30 -20 -58 -48 -63
-60 -82 -75 -116 -93 -15 -8 -25 -19 -21 -24 3 -6 1 -7 -6 -3 -6 4 -23 1 -36
-8 -13 -9 -30 -16 -36 -16 -7 0 -17 -7 -23 -16 -7 -9 -24 -17 -38 -17 -25 -2
-26 -3 -10 -22 16 -19 16 -19 0 -6 -15 11 -22 11 -45 -5 -16 -10 -31 -19 -35
-19 -3 0 -27 -15 -53 -33 -54 -38 -75 -81 -75 -154 0 -54 22 -104 41 -93 8 6
12 -6 7 -22 -5 -12 55 -23 71 -13 14 8 14 10 1 10 -51 4 -61 12 -96 76 -16 30
-16 33 8 86 29 62 58 88 168 144 41 21 77 41 80 44 3 3 19 12 35 21 46 24 78
43 91 54 40 34 55 45 62 45 17 1 121 118 136 155 10 22 21 47 25 55 4 8 20 60
35 115 15 55 32 114 37 131 5 17 9 40 9 52 0 11 5 24 10 27 6 3 10 15 10 26 0
10 3 19 8 19 14 0 32 39 22 45 -6 4 -9 3 -8 -2z"/>
<path d="M7120 10581 c0 -11 5 -23 11 -27 18 -11 3 -945 -16 -990 -8 -19 -18
-34 -22 -35 -4 0 -24 -3 -43 -5 -19 -3 -219 -7 -445 -10 -225 -2 -414 -4 -420
-4 -5 0 -1 -6 10 -12 21 -13 803 -13 846 0 43 13 108 56 114 77 3 11 9 215 12
453 4 356 3 435 -8 449 -12 14 -12 16 0 8 10 -6 13 -4 9 6 -3 8 -11 35 -19 62
-14 48 -29 63 -29 28z"/>
<path d="M5844 8425 c-156 -34 -299 -145 -367 -285 -61 -126 -72 -182 -72
-380 0 -166 1 -179 28 -255 52 -147 83 -200 174 -295 95 -100 187 -165 361
-255 141 -73 207 -134 245 -226 14 -35 47 -118 73 -184 110 -282 237 -407 479
-475 22 -6 101 -14 175 -17 226 -9 397 30 548 123 142 88 239 211 262 335 14
74 13 1538 -1 1615 -32 175 -144 277 -333 303 -120 17 -1493 13 -1572 -4z
m1140 -625 c71 -11 111 -44 127 -103 6 -25 10 -197 9 -468 -1 -473 -2 -484
-62 -534 -25 -21 -40 -25 -91 -25 -136 0 -168 53 -216 359 -24 155 -65 245
-144 318 -70 63 -129 94 -273 144 -66 22 -136 51 -157 65 -97 63 -104 172 -14
222 28 15 74 18 362 22 182 3 346 7 365 8 19 1 62 -2 94 -8z"/>
<path d="M5540 5563 c-259 -26 -441 -251 -401 -495 31 -185 155 -329 325 -374
156 -42 347 14 436 126 16 21 30 40 30 44 0 9 -146 116 -158 116 -7 0 -30 -13
-53 -29 -111 -81 -270 -47 -329 69 -80 158 23 331 196 330 49 0 120 -32 162
-73 19 -18 35 -27 40 -21 4 5 36 42 71 82 56 64 62 74 50 89 -51 64 -155 118
-255 133 -38 5 -71 9 -74 8 -3 -1 -21 -3 -40 -5z"/>
<path d="M8435 5547 c-145 -49 -260 -163 -299 -296 -67 -230 80 -478 327 -553
140 -42 306 -2 415 100 l42 40 0 141 0 141 -155 0 -155 0 0 -73 0 -74 48 1
c41 1 47 -2 50 -21 5 -31 -34 -45 -128 -47 -60 0 -84 4 -117 21 -201 107 -143
407 82 421 78 5 126 -10 177 -56 l40 -36 64 69 c35 39 63 75 64 81 0 21 -91
95 -148 121 -47 21 -76 27 -162 29 -69 3 -119 -1 -145 -9z"/>
<path d="M9365 5542 c-108 -38 -209 -122 -255 -211 -86 -169 -57 -360 74 -499
160 -170 392 -200 574 -75 91 62 92 65 92 224 l0 139 -160 0 -160 0 0 -69 c0
-77 4 -81 71 -81 32 0 39 -3 39 -20 0 -30 -37 -43 -120 -44 -112 0 -184 45
-220 139 -14 37 -15 131 -2 166 16 40 70 98 113 120 78 39 198 18 262 -47 l29
-29 64 70 c35 39 63 75 64 81 0 21 -82 86 -149 118 -58 27 -78 31 -166 34 -76
2 -112 -2 -150 -16z"/>
<path d="M6389 5508 c-25 -50 -233 -500 -294 -638 -23 -52 -49 -109 -58 -127
-10 -18 -17 -34 -17 -38 0 -3 53 -5 118 -5 l119 0 19 41 c31 70 27 69 218 69
192 0 185 2 219 -72 l17 -38 115 0 c66 0 115 4 115 9 0 6 -48 115 -106 243
-58 128 -143 314 -188 413 l-82 180 -86 3 -87 3 -22 -43z m155 -387 c20 -47
36 -88 36 -93 0 -4 -38 -8 -85 -8 -47 0 -85 4 -85 9 0 5 9 30 20 55 11 25 29
67 40 93 12 26 24 42 29 37 5 -5 25 -47 45 -93z"/>
<path d="M7140 5125 l0 -425 104 0 105 0 3 189 c2 104 6 193 10 196 4 4 132
-85 285 -198 178 -131 281 -200 285 -193 4 6 8 201 8 434 l0 423 -111 -3 -111
-3 1 -197 c0 -108 -3 -200 -8 -203 -10 -6 -116 69 -378 267 -101 76 -185 138
-188 138 -3 0 -5 -191 -5 -425z"/>
<path d="M9992 5263 c3 -276 4 -291 27 -347 41 -101 125 -177 242 -216 52 -18
79 -21 146 -17 129 8 230 63 297 162 63 93 69 127 70 429 l1 271 -107 3 -108
3 -1 -98 c0 -54 0 -154 1 -223 2 -244 -37 -319 -167 -328 -79 -5 -138 25 -170
87 -22 43 -23 53 -23 303 l0 258 -106 0 -105 0 3 -287z"/>
<path d="M5250 4315 l0 -135 30 0 c30 0 30 1 30 55 l0 55 65 0 65 0 0 -55 c0
-54 0 -55 30 -55 l30 0 0 135 0 135 -30 0 c-30 0 -30 -1 -30 -55 l0 -55 -65 0
-65 0 0 55 c0 54 0 55 -30 55 l-30 0 0 -135z"/>
<path d="M5624 4436 c-51 -22 -74 -61 -74 -124 0 -50 3 -58 39 -93 39 -39 59
-45 131 -39 68 5 128 87 115 156 -16 90 -120 139 -211 100z m120 -57 c34 -27
37 -91 4 -126 -28 -30 -83 -31 -115 -1 -39 37 -27 119 20 138 36 14 63 11 91
-11z"/>
<path d="M5908 4435 c-32 -18 -45 -56 -32 -94 7 -21 22 -30 74 -47 69 -22 87
-44 50 -64 -19 -10 -52 -6 -101 14 -10 5 -19 -1 -27 -18 -10 -23 -9 -26 24
-36 93 -31 177 -3 182 61 3 48 -7 58 -79 83 -49 17 -64 26 -64 41 0 24 50 32
95 17 25 -9 29 -8 34 11 3 12 1 26 -4 31 -17 17 -123 18 -152 1z"/>
<path d="M6130 4316 l0 -136 30 0 c27 0 30 3 30 34 0 33 1 34 51 38 114 11
158 110 77 171 -20 15 -48 21 -108 25 l-80 5 0 -137z m150 64 c11 -11 20 -24
20 -30 0 -23 -41 -50 -75 -50 l-35 0 0 50 0 50 35 0 c22 0 43 -8 55 -20z"/>
<path d="M6410 4315 l0 -135 30 0 30 0 0 135 0 135 -30 0 -30 0 0 -135z"/>
<path d="M6500 4425 c0 -23 4 -25 45 -25 l45 0 0 -110 0 -110 30 0 30 0 0 110
0 110 40 0 c36 0 40 3 40 25 l0 25 -115 0 -115 0 0 -25z"/>
<path d="M6797 4323 c-32 -70 -57 -131 -57 -135 0 -5 13 -8 29 -8 23 0 31 6
40 30 10 29 12 30 70 30 57 0 61 -2 76 -30 12 -23 22 -30 45 -30 17 0 30 1 30
3 0 1 -26 61 -59 132 -54 121 -60 130 -88 133 -29 3 -31 0 -86 -125z m122 -30
c1 -9 -13 -13 -39 -13 -22 0 -40 2 -40 4 0 2 10 26 21 53 l21 48 18 -40 c10
-22 19 -46 19 -52z"/>
<path d="M7060 4315 l0 -135 100 0 100 0 0 25 c0 24 -2 25 -70 25 l-70 0 0
110 0 110 -30 0 -30 0 0 -135z"/>
<path d="M7290 4315 l0 -135 30 0 30 0 0 135 0 135 -30 0 -30 0 0 -135z"/>
<path d="M7390 4425 c0 -22 4 -25 40 -25 l40 0 0 -110 0 -110 30 0 30 0 0 110
0 110 44 0 c32 0 45 4 48 15 2 9 24 -19 51 -64 38 -64 47 -88 47 -125 0 -44 1
-46 30 -46 29 0 30 1 30 48 0 39 9 61 50 130 28 46 50 85 50 88 0 2 -13 4 -28
4 -23 0 -33 -10 -64 -61 l-35 -61 -37 61 -37 61 -145 0 -144 0 0 -25z"/>
<path d="M8047 4323 c-31 -71 -57 -132 -57 -136 0 -4 13 -7 29 -7 22 0 31 6
41 30 12 29 15 30 74 30 59 0 62 -1 73 -30 9 -24 17 -30 42 -30 17 0 31 2 31
3 0 2 -26 62 -58 133 -54 120 -60 129 -88 132 -29 3 -31 0 -87 -125z m122 -30
c1 -9 -13 -13 -39 -13 -22 0 -40 2 -40 4 0 2 10 25 22 52 l21 49 18 -40 c10
-22 18 -46 18 -52z"/>
<path d="M8333 4431 c-28 -18 -33 -26 -33 -61 0 -46 14 -58 98 -85 56 -18 68
-40 28 -54 -22 -9 -81 -1 -104 13 -9 5 -32 -21 -32 -37 0 -16 73 -30 138 -28
72 2 109 88 56 130 -15 12 -32 21 -38 21 -6 0 -28 5 -49 11 -31 8 -38 14 -35
32 2 17 11 23 40 25 20 2 46 -2 57 -8 17 -8 22 -6 32 11 16 31 -1 42 -68 46
-46 3 -65 0 -90 -16z"/>
<path d="M8578 4435 c-32 -18 -45 -56 -32 -94 7 -21 22 -30 74 -47 49 -16 66
-26 68 -41 5 -34 -47 -38 -119 -9 -10 5 -19 -1 -27 -18 -10 -23 -9 -26 24 -36
93 -31 177 -3 182 61 3 48 -7 58 -79 83 -40 14 -65 28 -67 39 -4 22 41 33 89
20 34 -9 38 -8 43 11 3 11 1 25 -4 30 -17 17 -123 18 -152 1z"/>
<path d="M8853 4430 c-111 -67 -87 -222 39 -249 94 -20 178 40 178 127 0 87
-57 142 -147 142 -21 0 -52 -9 -70 -20z m140 -61 c58 -71 -31 -173 -113 -129
-26 14 -43 71 -31 103 22 58 105 74 144 26z"/>
<path d="M9173 4431 c-38 -24 -59 -54 -68 -99 -9 -43 24 -111 65 -136 50 -29
147 -20 178 16 9 12 7 17 -13 28 -20 10 -28 11 -37 2 -21 -21 -82 -14 -106 11
-26 28 -29 82 -7 114 22 31 78 40 111 18 25 -16 27 -16 46 3 20 20 20 20 -7
38 -41 27 -123 30 -162 5z"/>
<path d="M9400 4315 l0 -135 30 0 30 0 0 135 0 135 -30 0 -30 0 0 -135z"/>
<path d="M9601 4428 c-5 -13 -32 -74 -60 -135 l-50 -113 32 0 c27 0 35 5 44
30 11 29 14 30 73 30 59 0 61 -1 71 -30 9 -25 16 -30 44 -30 l34 0 -50 113
c-28 61 -55 122 -60 135 -6 16 -17 22 -39 22 -22 0 -33 -6 -39 -22z m59 -94
c11 -25 20 -48 20 -50 0 -2 -18 -4 -41 -4 -29 0 -40 4 -36 13 2 6 10 29 18 50
7 20 15 37 16 37 2 0 13 -21 23 -46z"/>
<path d="M9790 4425 c0 -22 4 -25 40 -25 l40 0 0 -110 0 -110 35 0 35 0 0 110
0 110 40 0 c36 0 40 3 40 25 l0 25 -115 0 -115 0 0 -25z"/>
<path d="M10050 4315 l0 -135 35 0 35 0 0 135 0 135 -35 0 -35 0 0 -135z"/>
<path d="M10233 4430 c-63 -38 -84 -98 -59 -165 18 -47 61 -82 106 -85 72 -6
92 0 131 39 35 34 39 44 39 87 0 89 -57 144 -147 144 -21 0 -52 -9 -70 -20z
m140 -61 c64 -79 -52 -189 -122 -115 -55 59 -9 155 68 142 20 -3 44 -15 54
-27z"/>
<path d="M10500 4315 l0 -135 30 0 29 0 3 80 3 80 64 -80 c53 -66 69 -80 93
-80 l28 0 0 135 0 135 -30 0 -29 0 -3 -82 -3 -82 -68 82 c-51 61 -75 82 -93
82 l-24 0 0 -135z"/>
</g>
</svg>
